<?xml version="1.0" encoding="UTF-8"?>
<svg width="80" height="60" viewBox="0 0 80 60" xmlns="http://www.w3.org/2000/svg">
  <rect width="80" height="60" fill="#f5f5f5" />
  <rect x="5" y="5" width="20" height="10" rx="2" fill="#ffffff" stroke="#333333" />
  <rect x="30" y="5" width="20" height="10" rx="2" fill="#ffffff" stroke="#333333" />
  <rect x="30" y="25" width="20" height="10" rx="2" fill="#ffffff" stroke="#333333" />
  <rect x="10" y="45" width="15" height="10" rx="2" fill="#ffffff" stroke="#333333" />
  <rect x="30" y="45" width="15" height="10" rx="2" fill="#ffffff" stroke="#333333" />
  <rect x="50" y="45" width="15" height="10" rx="2" fill="#ffffff" stroke="#333333" />
  <line x1="25" y1="10" x2="30" y2="10" stroke="#666666" stroke-width="1" />
  <line x1="40" y1="15" x2="40" y2="25" stroke="#666666" stroke-width="1" />
  <line x1="30" y1="30" x2="17.5" y2="45" stroke="#666666" stroke-width="1" />
  <line x1="40" y1="35" x2="40" y2="45" stroke="#666666" stroke-width="1" />
  <line x1="50" y1="30" x2="57.5" y2="45" stroke="#666666" stroke-width="1" />
  <text x="15" y="10" font-family="Arial" font-size="3" text-anchor="middle" fill="#333333">Event Store</text>
  <text x="40" y="10" font-family="Arial" font-size="3" text-anchor="middle" fill="#333333">Projector</text>
  <text x="40" y="30" font-family="Arial" font-size="3" text-anchor="middle" fill="#333333">Read Model</text>
  <text x="17.5" y="50" font-family="Arial" font-size="3" text-anchor="middle" fill="#333333">Indexed</text>
  <text x="37.5" y="50" font-family="Arial" font-size="3" text-anchor="middle" fill="#333333">Denormalized</text>
  <text x="57.5" y="50" font-family="Arial" font-size="3" text-anchor="middle" fill="#333333">Cached</text>
</svg>
