<?xml version="1.0" encoding="UTF-8"?>
<svg width="80" height="60" viewBox="0 0 80 60" xmlns="http://www.w3.org/2000/svg">
  <rect width="80" height="60" fill="#f5f5f5" />
  <rect x="10" y="5" width="20" height="10" rx="2" fill="#f9f9f9" stroke="#333333" />
  <rect x="10" y="25" width="20" height="10" rx="2" fill="#f9f9f9" stroke="#333333" />
  <rect x="10" y="45" width="20" height="10" rx="2" fill="#f9f9f9" stroke="#333333" />
  <rect x="50" y="5" width="20" height="10" rx="2" fill="#e6f7ff" stroke="#333333" />
  <rect x="50" y="25" width="20" height="10" rx="2" fill="#e6f7ff" stroke="#333333" />
  <rect x="50" y="45" width="20" height="10" rx="2" fill="#e6f7ff" stroke="#333333" />
  <line x1="20" y1="15" x2="20" y2="25" stroke="#666666" stroke-width="1" />
  <line x1="20" y1="35" x2="20" y2="45" stroke="#666666" stroke-width="1" />
  <line x1="60" y1="15" x2="60" y2="25" stroke="#666666" stroke-width="1" />
  <line x1="60" y1="35" x2="60" y2="45" stroke="#666666" stroke-width="1" />
  <line x1="30" y1="10" x2="50" y2="10" stroke="#666666" stroke-width="1" stroke-dasharray="2" />
  <line x1="30" y1="30" x2="50" y2="30" stroke="#666666" stroke-width="1" stroke-dasharray="2" />
  <line x1="30" y1="50" x2="50" y2="50" stroke="#666666" stroke-width="1" stroke-dasharray="2" />
  <text x="20" y="10" font-family="Arial" font-size="3" text-anchor="middle" fill="#333333">SuperAdmin</text>
  <text x="20" y="30" font-family="Arial" font-size="3" text-anchor="middle" fill="#333333">Admin</text>
  <text x="20" y="50" font-family="Arial" font-size="3" text-anchor="middle" fill="#333333">User</text>
  <text x="60" y="10" font-family="Arial" font-size="3" text-anchor="middle" fill="#333333">TeamOwner</text>
  <text x="60" y="30" font-family="Arial" font-size="3" text-anchor="middle" fill="#333333">TeamAdmin</text>
  <text x="60" y="50" font-family="Arial" font-size="3" text-anchor="middle" fill="#333333">TeamMember</text>
</svg>
