<?xml version="1.0" encoding="UTF-8"?>
<svg width="80" height="60" viewBox="0 0 80 60" xmlns="http://www.w3.org/2000/svg">
  <rect width="80" height="60" fill="#2a2a2a" />
  <rect x="5" y="5" width="20" height="10" rx="2" fill="#333333" stroke="#ffffff" />
  <rect x="30" y="5" width="20" height="10" rx="2" fill="#333333" stroke="#ffffff" />
  <rect x="55" y="5" width="20" height="10" rx="2" fill="#333333" stroke="#ffffff" />
  <rect x="30" y="30" width="20" height="10" rx="2" fill="#333333" stroke="#ffffff" />
  <line x1="25" y1="10" x2="30" y2="10" stroke="#999999" stroke-width="1" />
  <line x1="50" y1="10" x2="55" y2="10" stroke="#999999" stroke-width="1" />
  <line x1="40" y1="15" x2="40" y2="30" stroke="#999999" stroke-width="1" />
  <line x1="15" y1="15" x2="15" y2="35" stroke="#999999" stroke-width="1" />
  <line x1="15" y1="35" x2="30" y2="35" stroke="#999999" stroke-width="1" />
  <line x1="65" y1="15" x2="65" y2="35" stroke="#999999" stroke-width="1" />
  <line x1="50" y1="35" x2="65" y2="35" stroke="#999999" stroke-width="1" />
  <text x="15" y="10" font-family="Arial" font-size="3" text-anchor="middle" fill="#ffffff">Permission</text>
  <text x="40" y="10" font-family="Arial" font-size="3" text-anchor="middle" fill="#ffffff">Role</text>
  <text x="65" y="10" font-family="Arial" font-size="3" text-anchor="middle" fill="#ffffff">User</text>
  <text x="40" y="35" font-family="Arial" font-size="3" text-anchor="middle" fill="#ffffff">Team</text>
</svg>
