<?xml version="1.0" encoding="UTF-8"?>
<svg width="80" height="60" viewBox="0 0 80 60" xmlns="http://www.w3.org/2000/svg">
  <rect width="80" height="60" fill="#2a2a2a" />
  <rect x="5" y="10" width="20" height="15" rx="2" fill="#333333" stroke="#ffffff" />
  <rect x="35" y="10" width="20" height="15" rx="2" fill="#333333" stroke="#ffffff" />
  <polygon points="45,25 55,35 35,35" fill="#333333" stroke="#ffffff" />
  <rect x="15" y="35" width="20" height="10" rx="2" fill="#333333" stroke="#ffffff" />
  <rect x="40" y="35" width="20" height="10" rx="2" fill="#333333" stroke="#ffffff" />
  <rect x="65" y="35" width="10" height="10" rx="2" fill="#333333" stroke="#ffffff" />
  <line x1="25" y1="17.5" x2="35" y2="17.5" stroke="#999999" stroke-width="1" />
  <line x1="45" y1="25" x2="45" y2="17.5" stroke="#999999" stroke-width="1" />
  <line x1="35" y1="40" x2="15" y2="40" stroke="#999999" stroke-width="1" />
  <line x1="55" y1="40" x2="65" y2="40" stroke="#999999" stroke-width="1" />
  <text x="15" y="17.5" font-family="Arial" font-size="3" text-anchor="middle" fill="#ffffff">Event Store</text>
  <text x="45" y="17.5" font-family="Arial" font-size="3" text-anchor="middle" fill="#ffffff">Reactor</text>
  <text x="25" y="40" font-family="Arial" font-size="3" text-anchor="middle" fill="#ffffff">Side Effect</text>
  <text x="50" y="40" font-family="Arial" font-size="3" text-anchor="middle" fill="#ffffff">Side Effect</text>
  <text x="70" y="40" font-family="Arial" font-size="3" text-anchor="middle" fill="#ffffff">API</text>
</svg>
