<?xml version="1.0" encoding="UTF-8"?>
<svg width="80" height="60" viewBox="0 0 80 60" xmlns="http://www.w3.org/2000/svg">
  <rect width="80" height="60" fill="#2a2a2a" />
  <rect x="5" y="5" width="20" height="15" rx="2" fill="#333333" stroke="#ffffff" />
  <rect x="35" y="5" width="20" height="15" rx="2" fill="#333333" stroke="#ffffff" />
  <rect x="35" y="25" width="20" height="15" rx="2" fill="#333333" stroke="#ffffff" />
  <rect x="65" y="5" width="10" height="15" rx="2" fill="#333333" stroke="#ffffff" />
  <rect x="5" y="40" width="20" height="15" rx="2" fill="#333333" stroke="#ffffff" />
  <rect x="35" y="40" width="20" height="15" rx="2" fill="#333333" stroke="#ffffff" />
  <rect x="65" y="40" width="10" height="15" rx="2" fill="#333333" stroke="#ffffff" />
  <line x1="25" y1="12.5" x2="35" y2="12.5" stroke="#999999" stroke-width="1" />
  <line x1="45" y1="20" x2="45" y2="25" stroke="#999999" stroke-width="1" />
  <line x1="55" y1="12.5" x2="65" y2="12.5" stroke="#999999" stroke-width="1" />
  <line x1="45" y1="40" x2="45" y2="32.5" stroke="#999999" stroke-width="1" />
  <line x1="25" y1="47.5" x2="35" y2="47.5" stroke="#999999" stroke-width="1" />
  <line x1="55" y1="47.5" x2="65" y2="47.5" stroke="#999999" stroke-width="1" />
  <text x="15" y="12.5" font-family="Arial" font-size="3" text-anchor="middle" fill="#ffffff">EventStore</text>
  <text x="45" y="12.5" font-family="Arial" font-size="3" text-anchor="middle" fill="#ffffff">Reactor</text>
  <text x="45" y="32.5" font-family="Arial" font-size="3" text-anchor="middle" fill="#ffffff">QueuedReactor</text>
  <text x="70" y="12.5" font-family="Arial" font-size="3" text-anchor="middle" fill="#ffffff">Side</text>
  <text x="15" y="47.5" font-family="Arial" font-size="3" text-anchor="middle" fill="#ffffff">Email</text>
  <text x="45" y="47.5" font-family="Arial" font-size="3" text-anchor="middle" fill="#ffffff">Push</text>
  <text x="70" y="47.5" font-family="Arial" font-size="3" text-anchor="middle" fill="#ffffff">API</text>
</svg>
