<?xml version="1.0" encoding="UTF-8"?>
<svg width="80" height="60" viewBox="0 0 80 60" xmlns="http://www.w3.org/2000/svg">
  <rect width="80" height="60" fill="#2a2a2a" />
  <rect x="10" y="5" width="20" height="10" rx="2" fill="#333333" stroke="#ffffff" />
  <rect x="10" y="25" width="20" height="10" rx="2" fill="#333333" stroke="#ffffff" />
  <rect x="10" y="45" width="20" height="10" rx="2" fill="#333333" stroke="#ffffff" />
  <rect x="50" y="5" width="20" height="10" rx="2" fill="#1a3a4a" stroke="#ffffff" />
  <rect x="50" y="25" width="20" height="10" rx="2" fill="#1a3a4a" stroke="#ffffff" />
  <rect x="50" y="45" width="20" height="10" rx="2" fill="#1a3a4a" stroke="#ffffff" />
  <line x1="20" y1="15" x2="20" y2="25" stroke="#999999" stroke-width="1" />
  <line x1="20" y1="35" x2="20" y2="45" stroke="#999999" stroke-width="1" />
  <line x1="60" y1="15" x2="60" y2="25" stroke="#999999" stroke-width="1" />
  <line x1="60" y1="35" x2="60" y2="45" stroke="#999999" stroke-width="1" />
  <line x1="30" y1="10" x2="50" y2="10" stroke="#999999" stroke-width="1" stroke-dasharray="2" />
  <line x1="30" y1="30" x2="50" y2="30" stroke="#999999" stroke-width="1" stroke-dasharray="2" />
  <line x1="30" y1="50" x2="50" y2="50" stroke="#999999" stroke-width="1" stroke-dasharray="2" />
  <text x="20" y="10" font-family="Arial" font-size="3" text-anchor="middle" fill="#ffffff">SuperAdmin</text>
  <text x="20" y="30" font-family="Arial" font-size="3" text-anchor="middle" fill="#ffffff">Admin</text>
  <text x="20" y="50" font-family="Arial" font-size="3" text-anchor="middle" fill="#ffffff">User</text>
  <text x="60" y="10" font-family="Arial" font-size="3" text-anchor="middle" fill="#ffffff">TeamOwner</text>
  <text x="60" y="30" font-family="Arial" font-size="3" text-anchor="middle" fill="#ffffff">TeamAdmin</text>
  <text x="60" y="50" font-family="Arial" font-size="3" text-anchor="middle" fill="#ffffff">TeamMember</text>
</svg>
